<?xml version="1.0" encoding="UTF-8"?>
<svg version="1.1" xmlns="http://www.w3.org/2000/svg" width="347" height="219">
<path d="M0 0 C114.51 0 229.02 0 347 0 C347 72.27 347 144.54 347 219 C232.49 219 117.98 219 0 219 C0 146.73 0 74.46 0 0 Z " fill="#D3D3D3" transform="translate(0,0)"/>
<path d="M0 0 C114.51 0 229.02 0 347 0 C347 72.27 347 144.54 347 219 C232.49 219 117.98 219 0 219 C0 146.73 0 74.46 0 0 Z M10.74799156 9.5441637 C8.35677305 12.90370006 8.30787641 15.80229043 8.37181091 19.78112793 C8.36471653 20.56984897 8.35762214 21.35857001 8.35031277 22.17119169 C8.33269438 24.81709578 8.35085618 27.46153828 8.36889648 30.10742188 C8.36375912 32.00298228 8.35647922 33.89853792 8.34721375 35.79408264 C8.32866831 40.94495576 8.3416582 46.09531257 8.36130404 51.24616432 C8.37766589 56.63217414 8.36888109 62.01815062 8.36378479 67.4041748 C8.35926108 76.44970974 8.37515093 85.49503808 8.40307617 94.54052734 C8.43512926 105.00389243 8.4351132 115.46688484 8.4178614 125.93027639 C8.40200715 135.98860448 8.4087228 146.04679571 8.42579842 156.1051178 C8.43267771 160.38895807 8.43162745 164.67268894 8.42425346 168.95652771 C8.41660208 173.99960571 8.42867932 179.04225872 8.45610237 184.08526421 C8.46299933 185.9380155 8.46307019 187.79080639 8.45588684 189.64355659 C8.44722192 192.16913881 8.46309684 194.6934005 8.4853363 197.21887207 C8.47709554 197.95544525 8.46885477 198.69201842 8.46036428 199.450912 C8.51299315 202.67977462 8.6883464 204.59658525 10.68939841 207.18681329 C13.52296027 209.41037997 14.90637698 209.50176374 18.47578335 209.50615788 C19.59535063 209.51720556 20.71491792 209.52825325 21.86841148 209.53963572 C23.71347372 209.52727457 23.71347372 209.52727457 25.59580994 209.5146637 C27.55574988 209.52508199 27.55574988 209.52508199 29.55528456 209.53571075 C33.18522752 209.55438421 36.81476381 209.54801721 40.44472396 209.53755772 C44.35825108 209.53057891 48.27169353 209.54655359 52.18519592 209.55955505 C59.85325632 209.58122271 67.52116848 209.58106108 75.18924945 209.57292951 C81.42053374 209.56663531 87.65177472 209.5677612 93.88305855 209.57420158 C94.76918857 209.57510324 95.65531859 209.57600489 96.56830104 209.57693387 C98.36834626 209.57878503 100.16839147 209.58064759 101.96843667 209.58252143 C118.85732418 209.59910962 135.74612822 209.59037214 152.63501073 209.57353585 C168.09291649 209.55883886 183.55062789 209.57346545 199.00850862 209.60230602 C214.87292473 209.6316851 230.73725108 209.64267659 246.60169321 209.63312382 C248.39550402 209.63210124 250.18931485 209.63110663 251.98312569 209.6301403 C253.30707335 209.62942572 253.30707335 209.62942572 254.65776743 209.6286967 C260.88218463 209.62653055 267.10651706 209.63634734 273.33091545 209.65091133 C280.91565589 209.66841035 288.5001485 209.66835247 296.08487909 209.64555968 C299.95596253 209.63439501 303.82660893 209.63130465 307.6976738 209.64986038 C311.89121324 209.66970346 316.08368208 209.65093086 320.27720642 209.62818909 C322.11892257 209.64594268 322.11892257 209.64594268 323.99784511 209.66405493 C330.4782106 209.61024625 330.4782106 209.61024625 336.25591278 206.9498291 C338.42356808 203.2836061 338.69578211 200.31998665 338.62818909 196.17454529 C338.63528347 195.39313693 338.64237786 194.61172856 338.64968723 193.80664116 C338.66727241 191.19147408 338.64916085 188.57779226 338.63110352 185.96264648 C338.63624211 184.08664269 338.64352294 182.21064372 338.65278625 180.33465576 C338.67131476 175.24168895 338.65835296 170.14924503 338.63869596 165.05629992 C338.6223226 159.7290197 338.63112041 154.40177293 338.63621521 149.07447815 C338.64073724 140.12907548 338.62485852 131.18388184 338.59692383 122.23852539 C338.56486171 111.89158579 338.56489113 101.54502303 338.5821386 91.19805664 C338.59799258 81.24918284 338.59127801 71.3004474 338.57420158 61.35157967 C338.56732308 57.11518745 338.56837171 52.87890587 338.57574654 48.64251518 C338.58339788 43.65605558 338.57132087 38.67002579 338.54389763 33.68363953 C338.53700099 31.85185078 338.53692947 30.02002198 338.54411316 28.18823433 C338.55277875 25.69116416 338.53690224 23.19542935 338.5146637 20.69847107 C338.52702485 19.60630733 338.52702485 19.60630733 338.53963572 18.49207968 C338.48317065 15.06662009 338.24298999 13.30815811 336.09283352 10.58134556 C332.77422745 8.07380594 330.91809672 7.87342821 326.80154705 7.86577892 C325.69292865 7.86132108 324.58431026 7.85686324 323.44209737 7.85227031 C322.21401209 7.85245467 320.98592681 7.85263903 319.72062683 7.85282898 C318.42387616 7.84915229 317.12712549 7.8454756 315.79107934 7.8416875 C312.1795491 7.83165069 308.56803548 7.82794802 304.95649326 7.82529819 C301.06613701 7.82140014 297.17579399 7.81182151 293.28544617 7.80308533 C283.8846209 7.7833074 274.48379454 7.77325331 265.08295366 7.76435754 C260.65898837 7.75997706 256.23502429 7.75460965 251.81105995 7.74936867 C237.11025713 7.73235553 222.40945507 7.7178603 207.70864391 7.71061993 C203.89226976 7.70870995 200.07589561 7.70678963 196.25952148 7.70483398 C195.31094854 7.70435024 194.3623756 7.7038665 193.38505802 7.7033681 C178.01112587 7.69506384 162.63727142 7.66972063 147.26337322 7.63725331 C131.48944108 7.60421196 115.71554848 7.58617384 99.94158155 7.58297569 C91.08094644 7.58080794 82.22042467 7.57202066 73.35982323 7.54651451 C65.81534002 7.52484745 58.27099767 7.51673734 50.72648688 7.52648129 C46.87571174 7.53103758 43.02522746 7.52906323 39.17449188 7.50971985 C35.00289614 7.48894524 30.83195035 7.49903603 26.6603241 7.51225281 C25.43893099 7.50128356 24.21753787 7.49031432 22.95913285 7.47901267 C18.35319447 7.51441359 14.9403454 7.55349217 10.74799156 9.5441637 Z " fill="#020202" transform="translate(0,0)"/>
<path d="M0 0 C1.04671875 -0.00708984 2.0934375 -0.01417969 3.171875 -0.02148438 C20.41200241 0.11686233 35.27742323 6.38611698 47.625 18.4375 C58.49060125 30.65496454 65.48928778 46.53892233 64.96875 63.109375 C63.19573387 80.27539479 57.0228311 94.19112582 44.625 106.4375 C43.99980469 107.08460938 43.37460938 107.73171875 42.73046875 108.3984375 C36.99462078 113.92900249 28.86417724 119.02559227 20.79296875 119.66015625 C18.625 119.4375 18.625 119.4375 17.625 118.4375 C17.49145844 116.72850609 17.42152923 115.01445473 17.37890625 113.30078125 C17.34603516 112.24826172 17.31316406 111.19574219 17.27929688 110.11132812 C17.21863479 107.89006344 17.16128293 105.66870562 17.10742188 103.44726562 C16.93514887 98.10680236 16.78086207 93.4212945 14.625 88.4375 C15.62660156 88.14617187 16.62820312 87.85484375 17.66015625 87.5546875 C29.48388786 84.03586113 29.48388786 84.03586113 37.921875 75.4296875 C41.74661771 67.70161147 41.64270725 58.83148212 40.625 50.4375 C39.53027724 48.2329026 38.29280493 46.64170206 36.73828125 44.75 C34.01650631 39.09634819 35.31176741 31.5629373 35.625 25.4375 C31.04249242 26.2272292 27.05681111 26.94980643 23.1875 29.625 C18.98289191 31.76418657 17.21205287 31.4828628 12.70703125 30.8046875 C8.771658 30.33583441 4.89691257 30.30737012 0.9375 30.3125 C0.22480957 30.30831055 -0.48788086 30.30412109 -1.22216797 30.29980469 C-4.66158267 30.30779404 -7.76917624 30.50178105 -11.18359375 31.05859375 C-14.93016849 31.50341352 -16.38079247 30.52636897 -19.46484375 28.49609375 C-22.84704628 26.62170339 -26.59659972 26.08865288 -30.375 25.4375 C-30.32859375 26.58347656 -30.2821875 27.72945312 -30.234375 28.91015625 C-30.19683091 30.44007791 -30.16043359 31.97002801 -30.125 33.5 C-30.07472656 34.62825195 -30.07472656 34.62825195 -30.0234375 35.77929688 C-29.92316195 41.57020994 -31.26096372 44.58221824 -34.375 49.4375 C-36.81085503 56.5130789 -35.89852924 65.49779458 -33.375 72.4375 C-30.08351913 79.15038861 -26.44170512 82.99133284 -19.375 85.4375 C-16.06302389 86.52572072 -12.7401342 87.52725878 -9.375 88.4375 C-9.79757276 89.9210001 -10.23856322 91.39926424 -10.6875 92.875 C-10.93113281 93.69871094 -11.17476562 94.52242188 -11.42578125 95.37109375 C-11.73902344 96.05300781 -12.05226562 96.73492187 -12.375 97.4375 C-16.57308074 98.83686025 -20.02975631 99.64678952 -24.375 98.4375 C-27.06677979 96.09700594 -29.21187436 93.61046452 -31.4296875 90.8203125 C-34.6854853 86.83228708 -37.42967083 86.09687722 -42.375 85.4375 C-41.6325 86.159375 -40.89 86.88125 -40.125 87.625 C-36.74687781 91.0798977 -33.97452334 94.18849304 -31.875 98.5625 C-30.24527235 101.68614467 -29.38813668 102.69646573 -26.375 104.4375 C-22.87641132 105.01517496 -22.87641132 105.01517496 -19.125 105.125 C-17.86171875 105.19074219 -16.5984375 105.25648438 -15.296875 105.32421875 C-14.33265625 105.36160156 -13.3684375 105.39898437 -12.375 105.4375 C-12.34814062 107.58326637 -12.32866912 109.72912645 -12.3125 111.875 C-12.30089844 113.06996094 -12.28929687 114.26492187 -12.27734375 115.49609375 C-12.375 118.4375 -12.375 118.4375 -13.375 119.4375 C-26.24478126 118.96950795 -34.69721267 111.2342974 -43.34765625 102.4296875 C-54.26576834 90.57573723 -59.10526499 77.34846626 -58.8125 61.3125 C-58.81958984 60.21035156 -58.82667969 59.10820313 -58.83398438 57.97265625 C-58.70992707 41.88337802 -52.32215467 29.06341306 -41.375 17.4375 C-35.60037989 12.10708144 -29.41377521 7.89800375 -22.375 4.4375 C-21.6516748 4.08131592 -20.92834961 3.72513184 -20.18310547 3.3581543 C-13.36317436 0.31341381 -7.40793048 -0.14037032 0 0 Z " fill="#272C32" transform="translate(84.375,47.5625)"/>
<path d="M0 0 C49.17 0 98.34 0 149 0 C149 0.99 149 1.98 149 3 C99.83 3 50.66 3 0 3 C0 2.01 0 1.02 0 0 Z " fill="#444444" transform="translate(173,150)"/>
<path d="M0 0 C45.87 0 91.74 0 139 0 C139 0.99 139 1.98 139 3 C93.13 3 47.26 3 0 3 C0 2.01 0 1.02 0 0 Z " fill="#454545" transform="translate(183,106)"/>
</svg>
